<svg width="47" height="46" viewBox="0 0 47 46" fill="none" xmlns="http://www.w3.org/2000/svg">
<path fill-rule="evenodd" clip-rule="evenodd" d="M45 22.6277C44.8418 10.8583 34.656 1.60491 22.7584 2.01296C11.2903 2.40629 2.15223 11.8735 2 22.6278C2.00197 30.0281 5.15612 35.3722 8.77567 38.88C10.5907 40.639 12.5186 41.9311 14.2131 42.7795C15.3366 43.342 16.3168 43.6894 17.069 43.8634V40.8173C14.1391 41.083 12.0387 39.6359 10.5524 38.0586C9.79098 37.2506 9.16339 36.3816 8.66187 35.6872C8.61713 35.6253 8.5734 35.5647 8.53066 35.5057C8.26129 35.1339 8.04195 34.8379 7.84881 34.6132C7.75395 34.5029 7.67739 34.424 7.61668 34.3697C7.60106 34.3557 7.58773 34.3445 7.57666 34.3356L7.45734 34.2619C7.0026 33.9811 6.84905 33.3923 7.10872 32.9252C7.3684 32.458 7.9495 32.2777 8.42805 32.5157C8.5209 32.5618 8.60972 32.6159 8.69442 32.6752L17.0568 37.8391C17.0672 37.1469 17.194 36.46 17.433 35.8074C17.5279 35.5485 17.6397 35.2968 17.7676 35.0539C15.7644 34.6717 13.7223 33.9796 12.0623 32.5913C9.89457 30.7783 8.53503 27.9161 8.53448 23.5138C8.52324 21.2889 9.30537 19.14 10.7294 17.4433C10.1449 15.476 10.2658 13.36 11.0834 11.4628C11.201 11.19 11.4338 10.9835 11.7188 10.8995L12.0017 11.8586C11.7188 10.8995 11.7197 10.8992 11.7207 10.8989L11.7227 10.8983L11.7268 10.8971L11.7355 10.8947L11.7551 10.8894C11.7691 10.8858 11.785 10.8819 11.8027 10.8778C11.8383 10.8698 11.8813 10.8613 11.932 10.8532C12.0334 10.8372 12.1647 10.8231 12.3267 10.8187C12.651 10.8098 13.0939 10.8396 13.6624 10.9651C14.7316 11.2012 16.2404 11.7749 18.2468 13.064C21.6963 12.2103 25.3037 12.2103 28.7532 13.064C30.7596 11.7749 32.2684 11.2012 33.3376 10.9651C33.9061 10.8396 34.3489 10.8098 34.6733 10.8187C34.8353 10.8231 34.9666 10.8372 35.068 10.8532C35.1187 10.8613 35.1617 10.8698 35.1973 10.8778C35.215 10.8819 35.2309 10.8858 35.2449 10.8894L35.2645 10.8947L35.2732 10.8971L35.2773 10.8983L35.2793 10.8989C35.2803 10.8992 35.2812 10.8995 34.9983 11.8586L35.2812 10.8995C35.5662 10.9835 35.799 11.19 35.9166 11.4628C36.7342 13.36 36.8551 15.476 36.2706 17.4433C37.6838 19.1271 38.4651 21.2567 38.4655 23.4646V23.4648C38.4655 27.8963 37.1079 30.7763 34.9377 32.5913C33.2803 33.9774 31.2429 34.6598 29.2423 35.0236C29.3709 35.2693 29.4832 35.524 29.578 35.786C29.8734 36.6016 29.9936 37.4698 29.931 38.3345V43.8634C30.6832 43.6894 31.6634 43.342 32.7869 42.7795C34.4814 41.9311 36.4093 40.639 38.2243 38.88C41.8439 35.3722 44.9981 30.028 45 22.6277ZM34.2981 12.8314C34.1562 12.8452 33.9803 12.8713 33.7688 12.918C32.9294 13.1034 31.5264 13.6143 29.4858 14.9748C29.246 15.1347 28.949 15.1833 28.6708 15.1083C25.2847 14.1956 21.7153 14.1956 18.3292 15.1083C18.051 15.1833 17.754 15.1347 17.5142 14.9748C15.4736 13.6143 14.0706 13.1034 13.2311 12.918C13.0197 12.8713 12.8438 12.8452 12.7019 12.8314C12.2242 14.2916 12.2543 15.876 12.7983 17.3258C12.9333 17.6857 12.8502 18.091 12.5845 18.3686C11.2584 19.754 10.5243 21.5952 10.5345 23.5058L10.5345 23.5111C10.5345 27.4724 11.7352 29.7104 13.3454 31.0571C15.0068 32.4466 17.2645 33.0277 19.6502 33.3224C20.027 33.3689 20.345 33.6249 20.471 33.9831C20.5969 34.3414 20.5091 34.74 20.2443 35.0122C19.8317 35.4362 19.5138 35.9416 19.311 36.4953C19.1082 37.0489 19.0249 37.6387 19.0665 38.2262C19.0681 38.2497 19.069 38.2732 19.069 38.2968V39.6305C19.069 39.6364 19.069 39.6422 19.069 39.648V45C19.069 45.5523 18.6212 46 18.069 46C16.872 46 15.156 45.4883 13.3176 44.5678C11.448 43.6317 9.35111 42.2228 7.38381 40.3162C3.43984 36.4941 0 30.6509 0 22.6209V22.6071L9.51886e-05 22.6071C0.163608 10.7568 10.1789 0.443234 22.6899 0.0141398C35.643 -0.430118 46.8297 9.64837 46.9999 22.6078L47.0001 22.6209H47C47 30.6509 43.5602 36.4941 39.6162 40.3162C37.6489 42.2228 35.552 43.6317 33.6824 44.5678C31.844 45.4883 30.128 46 28.931 46C28.3787 46 27.931 45.5523 27.931 45V38.2968C27.931 38.2704 27.9321 38.2441 27.9341 38.2179C27.9811 37.6243 27.9005 37.0274 27.6975 36.4669C27.4946 35.9064 27.1738 35.3949 26.7563 34.9665C26.4896 34.6929 26.4021 34.2911 26.531 33.9314C26.6598 33.5716 26.9824 33.3167 27.3622 33.2746C29.7429 33.0107 31.9968 32.4436 33.6546 31.0571C35.2628 29.7121 36.4655 27.4603 36.4655 23.465M34.2981 12.8314C34.7758 14.2916 34.7457 15.876 34.2017 17.3258C34.0667 17.6857 34.1498 18.091 34.4155 18.3686C35.7317 19.7437 36.4651 21.5684 36.4655 23.4648" fill="white"/>
</svg>
