<svg width="29" height="31" viewBox="0 0 29 31" fill="none" xmlns="http://www.w3.org/2000/svg">
<path fill-rule="evenodd" clip-rule="evenodd" d="M1.74593 29.2984L1.68178 29.2342C0.962725 28.5152 0.699995 27.6015 0.699995 26.74V11.548C0.699995 10.6965 0.959723 9.74518 1.74731 9.02717C2.18589 8.62599 2.68857 8.3656 3.21892 8.22776C2.56556 8.08557 1.94244 7.78554 1.40736 7.28613C0.590931 6.52413 0.231995 5.52429 0.231995 4.49201C0.231995 3.45444 0.610464 2.47767 1.40736 1.73391C2.19974 0.994349 3.18518 0.692017 4.17599 0.692017C5.16681 0.692017 6.15225 0.994349 6.94463 1.73391C7.74153 2.47767 8.11999 3.45444 8.11999 4.49201C8.11999 5.52429 7.76106 6.52413 6.94463 7.28613C6.40873 7.7863 5.78451 8.08649 5.13006 8.22841C5.65926 8.36759 6.16571 8.63346 6.60108 9.05712C7.36341 9.77149 7.61599 10.7083 7.61599 11.548V26.74C7.61599 27.58 7.37622 28.5627 6.56534 29.2999L5.22 27.82C5.48399 27.58 5.61599 27.22 5.61599 26.74V11.548C5.61599 11.092 5.48399 10.744 5.22 10.504C4.956 10.24 4.60799 10.108 4.17599 10.108C3.74399 10.108 3.38399 10.24 3.09599 10.504C2.83199 10.744 2.69999 11.092 2.69999 11.548V26.74C2.69999 27.196 2.83199 27.556 3.09599 27.82C3.38399 28.06 3.74399 28.18 4.17599 28.18C4.60799 28.18 4.956 28.06 5.22 27.82L6.56534 29.2999C5.85898 29.942 4.99518 30.18 4.17599 30.18C3.35134 30.18 2.51689 29.9408 1.81563 29.3565L1.74593 29.2984ZM22.2866 29.2679L22.253 29.2342C21.5339 28.5152 21.2712 27.6015 21.2712 26.74V17.164C21.2712 15.7211 20.9712 15.1204 20.791 14.9136L20.7788 14.8995L20.7668 14.8852C20.6655 14.7644 20.3412 14.484 19.2752 14.484C18.1071 14.484 17.3744 14.824 16.8547 15.3567C16.3368 15.8875 15.9832 16.675 15.9832 17.956V26.74C15.9832 27.6015 15.7205 28.5152 15.0014 29.2342C14.2717 29.9639 13.3419 30.18 12.5432 30.18C11.7326 30.18 10.8436 29.9597 10.1178 29.2999L10.0826 29.2679L10.049 29.2342C9.32991 28.5152 9.06718 27.6015 9.06718 26.74V11.548C9.06718 10.6758 9.3506 9.78817 10.049 9.0898C10.768 8.37075 11.6817 8.10802 12.5432 8.10802C13.3963 8.10802 14.3043 8.38231 14.9981 9.1229C15.0501 9.1764 15.0999 9.23102 15.1475 9.2867C15.2305 9.23811 15.3147 9.19086 15.4 9.14496C16.7596 8.38986 18.2728 8.03602 19.8872 8.03602C22.3487 8.03602 24.547 8.7237 26.0938 10.4296C27.6069 12.0983 28.1872 14.4055 28.1872 16.984V26.74C28.1872 27.6015 27.9245 28.5152 27.2054 29.2342C26.4757 29.9639 25.5459 30.18 24.7472 30.18C23.9366 30.18 23.0476 29.9597 22.3218 29.2999L22.2866 29.2679ZM16.3592 10.9C16.2115 10.979 16.0684 11.0634 15.9301 11.1533C15.8798 11.1859 15.8301 11.2193 15.781 11.2534C15.6629 11.3354 15.5483 11.4217 15.4373 11.512C14.9849 11.8804 14.5919 12.3176 14.2584 12.8236C14.1482 12.9909 14.0444 13.1657 13.9472 13.348V11.512C13.9472 11.1104 13.8193 10.7785 13.5634 10.5164C13.5594 10.5122 13.5553 10.5081 13.5512 10.504C13.3112 10.24 12.9752 10.108 12.5432 10.108C12.0872 10.108 11.7272 10.24 11.4632 10.504C11.1992 10.768 11.0672 11.116 11.0672 11.548V26.74C11.0672 27.196 11.1992 27.556 11.4632 27.82C11.7272 28.06 12.0872 28.18 12.5432 28.18C12.9992 28.18 13.3472 28.06 13.5872 27.82C13.8512 27.556 13.9832 27.196 13.9832 26.74V17.956C13.9832 16.3921 14.3991 15.1298 15.2311 14.169C15.258 14.1379 15.2854 14.1071 15.3132 14.0766C15.3491 14.0372 15.3858 13.9983 15.4232 13.96C15.8271 13.546 16.2883 13.2192 16.8068 12.9793C17.5209 12.6491 18.3437 12.484 19.2752 12.484C20.6672 12.484 21.6752 12.856 22.2992 13.6C22.9472 14.344 23.2712 15.532 23.2712 17.164V26.74C23.2712 27.196 23.4032 27.556 23.6672 27.82C23.9312 28.06 24.2912 28.18 24.7472 28.18C25.2032 28.18 25.5512 28.06 25.7912 27.82C26.0552 27.556 26.1872 27.196 26.1872 26.74V16.984C26.1872 12.352 24.0872 10.036 19.8872 10.036C18.5672 10.036 17.3912 10.324 16.3592 10.9ZM2.77199 5.82401C3.13199 6.16001 3.59999 6.32802 4.17599 6.32802C4.75199 6.32802 5.22 6.16001 5.57999 5.82401C5.93999 5.48801 6.11999 5.04401 6.11999 4.49201C6.11999 3.96402 5.93999 3.53202 5.57999 3.19602C5.22 2.86002 4.75199 2.69202 4.17599 2.69202C3.59999 2.69202 3.13199 2.86002 2.77199 3.19602C2.41199 3.53202 2.23199 3.96402 2.23199 4.49201C2.23199 5.04401 2.41199 5.48801 2.77199 5.82401Z" fill="#E6EFE9"/>
</svg>
