<svg width="100%" viewBox="0 0 42 42" fill="none" xmlns="http://www.w3.org/2000/svg">
<path fill-rule="evenodd" clip-rule="evenodd" d="M30.2956 20.5448C24.8485 20.5448 20.4326 16.129 20.4326 10.6819V1.07116C20.4326 0.931839 20.3197 0.818901 20.1804 0.818901C20.0411 0.818901 19.9281 0.931839 19.9281 1.07116V10.6819C19.9281 16.129 15.5123 20.5448 10.0652 20.5448H0.252255C0.112938 20.5448 1.21798e-08 20.6578 0 20.7971C-1.21798e-08 20.9364 0.112938 21.0493 0.252254 21.0493H9.96407C15.4671 21.0493 19.9281 25.5104 19.9281 31.0134V40.9274C19.9281 41.0667 20.0411 41.1797 20.1804 41.1797C20.3197 41.1797 20.4326 41.0667 20.4326 40.9274V31.0134C20.4326 25.5104 24.8937 21.0493 30.3967 21.0493L40.1085 21.0493C40.2478 21.0493 40.3608 20.9364 40.3608 20.7971C40.3608 20.6578 40.2478 20.5448 40.1085 20.5448L30.2956 20.5448Z" fill="#FF6414"></path>
</svg>