<svg width="100%" viewBox="0 0 125 42" fill="none" xmlns="http://www.w3.org/2000/svg">
<path fill-rule="evenodd" clip-rule="evenodd" d="M30.2956 20.5448C24.8485 20.5448 20.4326 16.129 20.4326 10.6819V1.07116C20.4326 0.931839 20.3197 0.818901 20.1804 0.818901C20.0411 0.818901 19.9281 0.931839 19.9281 1.07116V10.6819C19.9281 16.129 15.5123 20.5448 10.0652 20.5448H0.252255C0.112938 20.5448 1.21798e-08 20.6578 0 20.7971C-1.21798e-08 20.9364 0.112938 21.0493 0.252254 21.0493H9.96407C15.4671 21.0493 19.9281 25.5104 19.9281 31.0134V40.9274C19.9281 41.0667 20.0411 41.1797 20.1804 41.1797C20.3197 41.1797 20.4326 41.0667 20.4326 40.9274V31.0134C20.4326 25.5104 24.8937 21.0493 30.3967 21.0493L40.1085 21.0493C40.2478 21.0493 40.3608 20.9364 40.3608 20.7971C40.3608 20.6578 40.2478 20.5448 40.1085 20.5448L30.2956 20.5448Z" fill="#FF6414"></path>
<path d="M53.9028 27.3035V17.3132H50.8594V14.8321H53.9028V10.1016H56.6154V14.8321H60.9821V17.3132H56.6154V27.2705C56.6154 28.6929 57.1116 29.2222 58.5672 29.2222H61.2467V31.7033H58.3025C55.0606 31.7033 53.9028 30.2808 53.9028 27.3035Z" fill="black"></path>
<path d="M77.9274 29.2222H78.7875V31.7033H77.2989C75.0494 31.7033 74.2885 30.7439 74.2555 29.0899C73.1969 30.6116 71.5098 31.9018 68.5986 31.9018C64.8936 31.9018 62.3795 30.0492 62.3795 26.9727C62.3795 23.5985 64.7282 21.7129 69.161 21.7129H74.1231V20.5551C74.1231 18.3717 72.5683 17.0485 69.9219 17.0485C67.5401 17.0485 65.9522 18.1733 65.6214 19.8935H62.9088C63.3057 16.5854 65.9853 14.6336 70.0542 14.6336C74.3547 14.6336 76.8358 16.7839 76.8358 20.7205V28.0975C76.8358 28.9907 77.1666 29.2222 77.9274 29.2222ZM74.1231 24.8225V23.9955H68.8964C66.4815 23.9955 65.1252 24.8886 65.1252 26.8073C65.1252 28.4614 66.5476 29.5861 68.7971 29.5861C72.1714 29.5861 74.1231 27.6343 74.1231 24.8225Z" fill="black"></path>
<path d="M87.9237 31.9018C82.9947 31.9018 79.7528 28.5606 79.7528 23.3008C79.7528 18.1402 83.094 14.6336 87.9899 14.6336C92.125 14.6336 94.7384 16.9493 95.4331 20.6543H92.5881C92.0919 18.4048 90.4379 17.0485 87.9568 17.0485C84.7149 17.0485 82.5316 19.6288 82.5316 23.3008C82.5316 26.9727 84.7149 29.4869 87.9568 29.4869C90.3717 29.4869 92.0257 28.0975 92.555 25.9472H95.4331C94.7714 29.5861 92.0257 31.9018 87.9237 31.9018Z" fill="black"></path>
<path d="M99.3332 27.3035V17.3132H96.2898V14.8321H99.3332V10.1016H102.046V14.8321H106.412V17.3132H102.046V27.2705C102.046 28.6929 102.542 29.2222 103.998 29.2222H106.677V31.7033H103.733C100.491 31.7033 99.3332 30.2808 99.3332 27.3035Z" fill="black"></path>
<path d="M116.051 31.9018C111.122 31.9018 107.681 28.3952 107.681 23.2677C107.681 18.1402 111.122 14.6336 116.051 14.6336C120.98 14.6336 124.42 18.1402 124.42 23.2677C124.42 28.3952 120.98 31.9018 116.051 31.9018ZM116.051 29.4869C119.392 29.4869 121.642 26.8735 121.642 23.2677C121.642 19.6619 119.392 17.0485 116.051 17.0485C112.71 17.0485 110.46 19.6619 110.46 23.2677C110.46 26.8735 112.71 29.4869 116.051 29.4869Z" fill="black"></path>
</svg>